<?xml version="1.0" encoding="UTF-8" standalone="no"?>
<!DOCTYPE svg PUBLIC "-//W3C//DTD SVG 1.1//EN" "http://www.w3.org/Graphics/SVG/1.1/DTD/svg11.dtd">
<svg width="100%" height="100%" viewBox="0 0 512 513" version="1.1" xmlns="http://www.w3.org/2000/svg" xmlns:xlink="http://www.w3.org/1999/xlink" xml:space="preserve" xmlns:serif="http://www.serif.com/" style="fill-rule:evenodd;clip-rule:evenodd;stroke-linejoin:round;stroke-miterlimit:2;">
    <g transform="matrix(1,0,0,1,-3600,-616)">
        <g id="Artboard13" transform="matrix(1,0,0,1,-5040.33,616.224)">
            <rect x="8640.33" y="0" width="512" height="512" style="fill:none;"/>
            <g transform="matrix(4.65639,0,0,4.65639,1816.62,-936.036)">
                <g transform="matrix(-0.0114425,0,0,4.45475,1537.82,-794.61)">
                    <path d="M1605.48,224.942C1641.03,227.487 1681.57,230.026 1711.94,232.571C1719.75,233.225 1727.34,233.878 1731.41,234.532C1734.12,234.968 1735.17,235.404 1734.71,235.84C1734.09,236.421 1730.94,237.003 1726.61,237.584C1720.12,238.456 1709.78,239.327 1699.84,240.199C1687.4,241.29 1674.43,242.378 1658.76,243.469C1643.08,244.559 1623.5,245.647 1605.84,246.738C1605.84,246.859 1567.48,246.958 1520.22,246.958C1472.96,246.958 1434.6,246.859 1434.6,246.738C1416.93,245.647 1397.35,244.559 1381.66,243.469C1365.98,242.378 1353,241.29 1340.55,240.199C1330.6,239.327 1320.23,238.456 1313.72,237.584C1309.39,237.003 1306.22,236.421 1305.59,235.84C1305.11,235.404 1306.15,234.968 1308.85,234.532C1312.89,233.878 1320.46,233.225 1328.24,232.571C1358.5,230.026 1398.9,227.487 1434.23,224.942C1434.23,224.821 1472.59,224.723 1519.85,224.723C1567.1,224.722 1605.47,224.821 1605.48,224.942Z"/>
                </g>
                <g transform="matrix(-1.4013e-18,0.022885,3.18669,1.95129e-16,768.879,207.395)">
                    <path d="M1562.67,224.942C1580.5,227.489 1600.79,230.024 1616.02,232.571C1619.93,233.225 1623.73,233.878 1625.77,234.532C1627.13,234.968 1627.66,235.404 1627.43,235.84C1627.12,236.421 1625.55,237.003 1623.39,237.584C1620.15,238.456 1614.98,239.327 1610.01,240.199C1603.8,241.29 1597.32,242.378 1589.49,243.468C1581.64,244.56 1571.87,245.646 1563.03,246.738C1563.03,246.907 1543.85,247.045 1520.22,247.045C1496.59,247.045 1477.41,246.908 1477.41,246.738C1468.57,245.646 1458.79,244.56 1450.94,243.469C1443.09,242.378 1436.6,241.29 1430.37,240.199C1425.39,239.327 1420.21,238.456 1416.95,237.584C1414.78,237.003 1413.19,236.422 1412.87,235.84C1412.63,235.404 1413.14,234.968 1414.49,234.533C1416.51,233.878 1420.28,233.225 1424.16,232.571C1439.28,230.024 1459.42,227.489 1477.04,224.943C1477.04,224.773 1496.21,224.635 1519.84,224.635C1543.47,224.635 1562.66,224.773 1562.67,224.942Z"/>
                </g>
                <g transform="matrix(-0.00809107,0.00809107,2.2532,2.2532,1001.17,-302.875)">
                    <path d="M1605.48,224.942C1641.05,227.489 1681.55,230.024 1711.94,232.571C1719.75,233.225 1727.34,233.878 1731.41,234.532C1734.12,234.968 1735.17,235.404 1734.71,235.84C1734.09,236.421 1730.94,237.003 1726.61,237.584C1720.12,238.456 1709.78,239.327 1699.84,240.199C1687.4,241.29 1674.44,242.378 1658.76,243.469C1643.07,244.56 1623.52,245.646 1605.84,246.738C1605.84,246.908 1567.48,247.045 1520.22,247.045C1472.96,247.045 1434.6,246.908 1434.6,246.738C1416.92,245.646 1397.37,244.56 1381.66,243.469C1365.98,242.378 1353.01,241.29 1340.55,240.199C1330.59,239.327 1320.24,238.456 1313.72,237.584C1309.39,237.003 1306.22,236.422 1305.59,235.84C1305.11,235.404 1306.15,234.968 1308.85,234.532C1312.9,233.878 1320.46,233.225 1328.24,232.571C1358.53,230.024 1398.88,227.489 1434.23,224.942C1434.23,224.773 1472.59,224.635 1519.84,224.635C1567.1,224.635 1605.47,224.773 1605.48,224.942Z"/>
                </g>
                <g transform="matrix(0.0161821,0.0161821,2.25333,-2.25333,964.247,747.65)">
                    <path d="M1562.67,224.942C1580.5,227.489 1600.79,230.024 1616.02,232.571C1619.93,233.225 1623.73,233.878 1625.77,234.532C1627.13,234.968 1627.66,235.404 1627.43,235.84C1627.12,236.421 1625.55,237.003 1623.39,237.584C1620.15,238.456 1614.98,239.327 1610.01,240.199C1603.8,241.29 1597.32,242.378 1589.49,243.468C1581.64,244.56 1571.87,245.646 1563.03,246.738C1563.03,246.907 1543.85,247.045 1520.22,247.045C1496.59,247.045 1477.41,246.908 1477.41,246.738C1468.57,245.646 1458.79,244.56 1450.94,243.469C1443.09,242.378 1436.6,241.29 1430.37,240.199C1425.39,239.327 1420.21,238.456 1416.95,237.584C1414.78,237.003 1413.19,236.422 1412.87,235.84C1412.63,235.404 1413.14,234.968 1414.49,234.533C1416.51,233.878 1420.28,233.225 1424.16,232.571C1439.28,230.024 1459.42,227.489 1477.04,224.943C1477.04,224.773 1496.21,224.635 1519.84,224.635C1543.47,224.635 1562.66,224.773 1562.67,224.942Z"/>
                </g>
            </g>
        </g>
    </g>
</svg>
